<svg width="671.227" height="374.587" viewBox="0 0 503.42 280.94" class="displayed_equation" xmlns="http://www.w3.org/2000/svg">
  <path d="M 123.984375 467.915625 L 2190.15625 467.915625 M 123.984375 597.05625 L 2190.15625 597.05625 M 123.984375 726.157813 L 2190.15625 726.157813 M 123.984375 855.298438 L 2190.15625 855.298438 M 123.984375 984.439063 L 2190.15625 984.439063 M 123.984375 1113.579688 L 2190.15625 1113.579688 M 123.984375 1242.720313 L 2190.15625 1242.720313 M 123.984375 1371.860938 L 2190.15625 1371.860938 M 123.984375 1501.001563 L 2190.15625 1501.001563 M 123.984375 1630.142188 L 2190.15625 1630.142188 M 123.984375 1759.282813 L 2190.15625 1759.282813 M 123.984375 1888.384375 L 2190.15625 1888.384375 M 123.984375 2017.525 L 2190.15625 2017.525 M 123.984375 2146.665625 L 2190.15625 2146.665625 M 123.984375 2275.80625 L 2190.15625 2275.80625 M 123.984375 2404.946875 L 2190.15625 2404.946875 M 123.984375 2534.0875 L 2190.15625 2534.0875 M 123.984375 467.915625 L 123.984375 2534.0875 M 253.085938 467.915625 L 253.085938 2534.0875 M 382.226563 467.915625 L 382.226563 2534.0875 M 511.367188 467.915625 L 511.367188 2534.0875 M 640.507813 467.915625 L 640.507813 2534.0875 M 769.648438 467.915625 L 769.648438 2534.0875 M 898.789063 467.915625 L 898.789063 2534.0875 M 1027.929688 467.915625 L 1027.929688 2534.0875 M 1157.070313 467.915625 L 1157.070313 2534.0875 M 1286.210938 467.915625 L 1286.210938 2534.0875 M 1415.3125 467.915625 L 1415.3125 2534.0875 M 1544.453125 467.915625 L 1544.453125 2534.0875 M 1673.59375 467.915625 L 1673.59375 2534.0875 M 1802.734375 467.915625 L 1802.734375 2534.0875 M 1931.875 467.915625 L 1931.875 2534.0875 M 2061.015625 467.915625 L 2061.015625 2534.0875 M 2190.15625 467.915625 L 2190.15625 2534.0875" transform="matrix(.1 0 0 -.1 0 280.94)" fill="none" stroke-width="3.985" stroke-linejoin="round" stroke="#dbdbdc" stroke-miterlimit="10" />
  <path d="M 123.984375 467.915625 L 2190.15625 467.915625 M 123.984375 984.439063 L 2190.15625 984.439063 M 123.984375 1501.001563 L 2190.15625 1501.001563 M 123.984375 2017.525 L 2190.15625 2017.525 M 123.984375 2534.009375 L 2190.15625 2534.009375 M 123.984375 467.915625 L 123.984375 2534.0875 M 640.507813 467.915625 L 640.507813 2534.0875 M 1157.070313 467.915625 L 1157.070313 2534.0875 M 1673.59375 467.915625 L 1673.59375 2534.0875 M 2190.078125 467.915625 L 2190.078125 2534.0875" transform="matrix(.1 0 0 -.1 0 280.94)" fill="none" stroke-width="3.985" stroke-linejoin="round" stroke="#a5a5a6" stroke-miterlimit="10" />
  <path d="M 640.507813 965.884375 L 640.507813 1002.99375" transform="matrix(.1 0 0 -.1 0 280.94)" fill="none" stroke-width="7.97" stroke-linejoin="round" stroke="#000" stroke-miterlimit="10" />
  <path d="M57.890625 193.027344L64.539063 193.027344 64.539063 192.269531 57.890625 192.269531zM70.476563 193.753906L70.152344 193.753906C69.898438 194.425781 69.75 194.660156 69.160156 194.660156L67.609375 194.660156 66.828125 194.691406 66.828125 194.636719 68.300781 193.242188C69.484375 192.046875 70.117188 191.277344 70.117188 190.285156 70.117188 189.113281 69.238281 188.355469 67.976563 188.355469 66.894531 188.355469 66.136719 188.980469 65.789063 190.0625L66.058594 190.175781C66.472656 189.335938 66.960938 189.082031 67.6875 189.082031 68.546875 189.082031 69.082031 189.617188 69.082031 190.453125 69.082031 191.625 68.523438 192.328125 67.421875 193.464844L65.722656 195.160156 65.722656 195.539063 70.117188 195.539063 70.476563 193.753906" />
  <path d="M 1673.59375 965.884375 L 1673.59375 1002.99375" transform="matrix(.1 0 0 -.1 0 280.94)" fill="none" stroke-width="7.97" stroke-linejoin="round" stroke="#000" stroke-miterlimit="10" />
  <path d="M 169.777344 193.753906 L 169.453125 193.753906 C 169.195313 194.425781 169.050781 194.660156 168.460938 194.660156 L 166.910156 194.660156 L 166.128906 194.691406 L 166.128906 194.636719 L 167.601563 193.242188 C 168.785156 192.046875 169.417969 191.277344 169.417969 190.285156 C 169.417969 189.113281 168.539063 188.355469 167.277344 188.355469 C 166.195313 188.355469 165.4375 188.980469 165.089844 190.0625 L 165.359375 190.175781 C 165.773438 189.335938 166.261719 189.082031 166.988281 189.082031 C 167.847656 189.082031 168.382813 189.617188 168.382813 190.453125 C 168.382813 191.625 167.824219 192.328125 166.71875 193.464844 L 165.023438 195.160156 L 165.023438 195.539063 L 169.417969 195.539063 L 169.777344 193.753906" />
  <path d="M 1138.515625 1501.001563 L 1175.625 1501.001563" transform="matrix(.1 0 0 -.1 0 280.94)" fill="none" stroke-width="7.97" stroke-linejoin="round" stroke="#000" stroke-miterlimit="10" />
  <path d="M 109.476563 132.65625 L 109.152344 132.65625 C 108.898438 133.324219 108.753906 133.558594 108.160156 133.558594 L 106.609375 133.558594 L 105.828125 133.59375 L 105.828125 133.535156 L 107.300781 132.140625 C 108.484375 130.949219 109.117188 130.179688 109.117188 129.183594 C 109.117188 128.011719 108.238281 127.257813 106.976563 127.257813 C 105.894531 127.257813 105.136719 127.882813 104.789063 128.960938 L 105.058594 129.074219 C 105.472656 128.238281 105.964844 127.980469 106.6875 127.980469 C 107.546875 127.980469 108.082031 128.515625 108.082031 129.351563 C 108.082031 130.523438 107.523438 131.226563 106.421875 132.363281 L 104.722656 134.058594 L 104.722656 134.441406 L 109.117188 134.441406 L 109.476563 132.65625" />
  <path d="M 1138.515625 2017.525 L 1175.625 2017.525" transform="matrix(.1 0 0 -.1 0 280.94)" fill="none" stroke-width="7.97" stroke-linejoin="round" stroke="#000" stroke-miterlimit="10" />
  <path d="M 109.664063 81.078125 L 109.664063 80.308594 L 108.527344 80.308594 L 108.527344 75.644531 L 107.847656 75.644531 L 104.445313 80.375 L 104.445313 81.078125 L 107.535156 81.078125 L 107.535156 82.839844 L 108.527344 82.839844 L 108.527344 81.078125 Z M 107.535156 80.308594 L 105.058594 80.308594 L 105.058594 80.261719 L 107.492188 76.859375 L 107.535156 76.859375 L 107.535156 80.308594" />
  <path d="M 173.945313 984.439063 L 2140.15625 984.439063" transform="matrix(.1 0 0 -.1 0 280.94)" fill="none" stroke-width="7.97" stroke-linejoin="round" stroke="#000" stroke-miterlimit="10" />
  <path d="M 13.53125 182.496094 L 19 184.558594 L 17.195313 182.496094 L 19 180.429688" />
  <path d="M 135.3125 984.439063 L 190 963.814063 L 171.953125 984.439063 L 190 1005.103125 Z M 135.3125 984.439063" transform="matrix(.1 0 0 -.1 0 280.94)" fill="none" stroke-width="7.97" stroke="#000" stroke-miterlimit="10" />
  <path d="M 217.878906 182.496094 L 212.410156 180.429688 L 214.214844 182.496094 L 212.410156 184.558594" />
  <path d="M 2178.789063 984.439063 L 2124.101563 1005.103125 L 2142.148438 984.439063 L 2124.101563 963.814063 Z M 2178.789063 984.439063" transform="matrix(.1 0 0 -.1 0 280.94)" fill="none" stroke-width="7.97" stroke="#000" stroke-miterlimit="10" />
  <path d="M 226.613281 181.816406 L 226.582031 181.816406 L 226.445313 181.246094 C 226.289063 180.644531 226.078125 180.152344 225.8125 179.839844 L 225.644531 179.839844 L 224.09375 180.019531 L 224.09375 180.355469 C 224.09375 180.355469 224.261719 180.320313 224.4375 180.320313 C 225.175781 180.308594 225.363281 180.609375 225.664063 181.546875 L 225.976563 182.5625 L 225.175781 183.734375 C 224.742188 184.359375 224.539063 184.371094 224.496094 184.371094 C 224.304688 184.371094 224.039063 184.226563 223.792969 184.226563 C 223.523438 184.226563 223.355469 184.472656 223.355469 184.691406 C 223.355469 184.972656 223.523438 185.238281 224.003906 185.238281 C 224.671875 185.238281 225.039063 184.714844 225.398438 184.136719 L 226.113281 182.976563 L 226.15625 182.976563 L 226.4375 184.101563 C 226.59375 184.828125 226.839844 185.25 227.351563 185.25 C 228.109375 185.25 228.578125 184.492188 228.902344 184.003906 L 228.667969 183.824219 C 228.367188 184.226563 228.152344 184.449219 227.863281 184.449219 C 227.515625 184.449219 227.296875 184.035156 226.984375 183.007813 L 226.746094 182.25 L 227.429688 181.167969 C 227.617188 180.855469 227.773438 180.699219 228.03125 180.699219 C 228.175781 180.699219 228.433594 180.8125 228.609375 180.8125 C 228.914063 180.8125 229.125 180.554688 229.125 180.285156 C 229.125 179.972656 228.992188 179.796875 228.566406 179.796875 C 227.90625 179.796875 227.464844 180.34375 227.160156 180.878906 L 226.613281 181.816406" />
  <path d="M 1157.070313 517.876563 L 1157.070313 2484.126563" transform="matrix(.1 0 0 -.1 0 280.94)" fill="none" stroke-width="7.97" stroke-linejoin="round" stroke="#000" stroke-miterlimit="10" />
  <path d="M 115.707031 233.015625 L 117.769531 227.546875 L 115.707031 229.351563 L 113.640625 227.546875" />
  <path d="M 1157.070313 479.24375 L 1177.695313 533.93125 L 1157.070313 515.884375 L 1136.40625 533.93125 Z M 1157.070313 479.24375" transform="matrix(.1 0 0 -.1 0 280.94)" fill="none" stroke-width="7.97" stroke="#000" stroke-miterlimit="10" />
  <path d="M 115.707031 28.664063 L 113.640625 34.136719 L 115.707031 32.328125 L 117.769531 34.136719" />
  <path d="M 1157.070313 2522.759375 L 1136.40625 2468.032813 L 1157.070313 2486.11875 L 1177.695313 2468.032813 Z M 1157.070313 2522.759375" transform="matrix(.1 0 0 -.1 0 280.94)" fill="none" stroke-width="7.97" stroke="#000" stroke-miterlimit="10" />
  <path d="M115.601563 17.511719C115.464844 16.621094 115.386719 16.265625 115.140625 15.839844L114.976563 15.839844 113.390625 15.964844 113.390625 16.285156C113.390625 16.285156 113.625 16.265625 113.78125 16.265625 114.464844 16.265625 114.519531 16.8125 114.597656 17.3125L115.253906 21.238281C114.941406 21.71875 114.140625 22.78125 113.925781 22.78125 113.679688 22.78125 113.558594 22.1875 113.132813 22.1875 112.878906 22.1875 112.699219 22.335938 112.699219 22.667969 112.699219 23.082031 113.089844 23.394531 113.558594 23.394531 114.40625 23.394531 115.1875 22.132813 116.023438 20.972656 116.605469 20.171875 117.242188 19.210938 117.84375 18.148438 118.199219 17.546875 118.332031 17.046875 118.332031 16.609375 118.332031 16.132813 118.042969 15.761719 117.632813 15.761719 117.308594 15.761719 117.140625 15.964844 117.140625 16.199219 117.140625 16.621094 117.6875 16.933594 117.6875 17.222656 117.6875 17.492188 117.585938 17.761719 117.320313 18.195313L116.035156 20.257813 115.96875 20.257813 115.867188 19.144531 115.601563 17.511719M111.222656 190.304688C111.222656 188.003906 110.21875 186.675781 108.777344 186.675781 107.160156 186.675781 106.300781 188.152344 106.300781 190.269531 106.300781 192.246094 106.960938 193.964844 108.757813 193.964844 110.507813 193.964844 111.222656 192.210938 111.222656 190.304688zM110.140625 190.371094C110.140625 192.511719 109.636719 193.558594 108.757813 193.558594 107.863281 193.558594 107.371094 192.488281 107.371094 190.324219 107.371094 188.117188 107.863281 187.058594 108.742188 187.058594 109.660156 187.058594 110.140625 188.105469 110.140625 190.371094" />
  <path d="M 523.4375 2538.814063 L 531.992188 2497.251563 L 534.53125 2485.064063 L 537.03125 2472.915625 L 539.570313 2460.80625 L 542.109375 2448.735938 L 544.609375 2436.74375 L 547.148438 2424.790625 L 549.6875 2412.876563 L 552.1875 2401.001563 L 554.726563 2389.204688 L 557.226563 2377.446875 L 562.304688 2354.0875 L 564.804688 2342.485938 L 567.34375 2330.923438 L 569.882813 2319.4 L 572.382813 2307.954688 L 574.921875 2296.548438 L 577.460938 2285.18125 L 579.960938 2273.853125 L 582.5 2262.603125 L 585.039063 2251.392188 L 587.578125 2240.220313 L 590.078125 2229.0875 L 592.617188 2218.032813 L 595.15625 2207.017188 L 597.65625 2196.040625 L 602.734375 2174.24375 L 605.234375 2163.423438 L 610.3125 2141.939063 L 612.8125 2131.275 L 615.351563 2120.65 L 617.890625 2110.103125 L 620.390625 2099.55625 L 622.929688 2089.0875 L 625.46875 2078.657813 L 627.96875 2068.30625 L 630.507813 2057.954688 L 633.046875 2047.68125 L 635.546875 2037.446875 L 638.085938 2027.290625 L 640.625 2017.173438 L 643.125 2007.095313 L 645.664063 1997.05625 L 648.203125 1987.05625 L 650.703125 1977.134375 L 653.242188 1967.251563 L 655.78125 1957.446875 L 658.28125 1947.642188 L 660.820313 1937.915625 L 663.359375 1928.228125 L 665.859375 1918.61875 L 668.398438 1909.009375 L 670.9375 1899.478125 L 673.4375 1889.985938 L 675.976563 1880.571875 L 678.515625 1871.196875 L 681.015625 1861.821875 L 686.09375 1843.30625 L 688.59375 1834.126563 L 691.132813 1824.985938 L 693.671875 1815.884375 L 696.171875 1806.860938 L 698.710938 1797.876563 L 701.25 1788.93125 L 703.75 1780.025 L 706.289063 1771.196875 L 708.828125 1762.407813 L 711.328125 1753.657813 L 713.867188 1744.946875 L 716.40625 1736.314063 L 718.90625 1727.720313 L 721.445313 1719.165625 L 723.984375 1710.689063 L 726.484375 1702.2125 L 729.023438 1693.814063 L 731.5625 1685.49375 L 734.0625 1677.173438 L 736.601563 1668.93125 L 739.140625 1660.728125 L 741.640625 1652.603125 L 744.179688 1644.478125 L 746.71875 1636.43125 L 749.21875 1628.423438 L 754.296875 1612.564063 L 756.796875 1604.7125 L 759.335938 1596.9 L 761.875 1589.165625 L 764.375 1581.43125 L 769.453125 1566.196875 L 771.953125 1558.61875 L 774.492188 1551.11875 L 777.03125 1543.657813 L 779.53125 1536.235938 L 782.070313 1528.892188 L 784.609375 1521.5875 L 787.109375 1514.321875 L 789.648438 1507.095313 L 792.1875 1499.946875 L 794.6875 1492.8375 L 797.226563 1485.767188 L 799.765625 1478.775 L 802.265625 1471.782813 L 804.804688 1464.86875 L 807.34375 1457.99375 L 809.84375 1451.196875 L 812.382813 1444.439063 L 814.921875 1437.720313 L 817.421875 1431.040625 L 819.960938 1424.439063 L 822.5 1417.876563 L 825 1411.314063 L 830.078125 1398.423438 L 832.578125 1392.05625 L 837.65625 1379.478125 L 840.195313 1373.267188 L 842.695313 1367.05625 L 847.773438 1354.86875 L 850.273438 1348.853125 L 852.8125 1342.876563 L 855.3125 1336.939063 L 857.851563 1331.079688 L 860.390625 1325.259375 L 862.890625 1319.478125 L 865.429688 1313.735938 L 867.96875 1308.032813 L 870.46875 1302.407813 L 873.007813 1296.821875 L 875.546875 1291.314063 L 878.046875 1285.80625 L 880.585938 1280.376563 L 885.664063 1269.673438 L 888.164063 1264.4 L 890.703125 1259.165625 L 893.242188 1253.970313 L 895.742188 1248.853125 L 898.28125 1243.735938 L 900.820313 1238.696875 L 903.320313 1233.735938 L 905.859375 1228.775 L 908.398438 1223.892188 L 910.898438 1219.048438 L 913.4375 1214.24375 L 915.9375 1209.517188 L 918.476563 1204.829688 L 921.015625 1200.18125 L 923.515625 1195.571875 L 926.054688 1191.040625 L 928.59375 1186.548438 L 931.09375 1182.095313 L 933.632813 1177.720313 L 936.171875 1173.384375 L 938.710938 1169.0875 L 941.210938 1164.829688 L 943.75 1160.610938 L 946.289063 1156.470313 L 948.789063 1152.36875 L 953.867188 1144.321875 L 956.367188 1140.376563 L 958.90625 1136.470313 L 961.445313 1132.642188 L 963.945313 1128.814063 L 966.484375 1125.064063 L 969.023438 1121.392188 L 971.523438 1117.720313 L 974.0625 1114.126563 L 976.601563 1110.571875 L 979.101563 1107.05625 L 984.179688 1100.18125 L 986.679688 1096.821875 L 991.757813 1090.259375 L 994.257813 1087.05625 L 996.796875 1083.892188 L 999.335938 1080.80625 L 1001.835938 1077.720313 L 1004.375 1074.7125 L 1006.914063 1071.74375 L 1009.414063 1068.853125 L 1011.953125 1065.9625 L 1014.492188 1063.15 L 1016.992188 1060.415625 L 1019.53125 1057.68125 L 1022.03125 1055.025 L 1024.570313 1052.407813 L 1027.109375 1049.829688 L 1029.648438 1047.329688 L 1032.148438 1044.86875 L 1034.6875 1042.446875 L 1037.226563 1040.064063 L 1039.726563 1037.759375 L 1042.265625 1035.454688 L 1044.804688 1033.267188 L 1047.304688 1031.079688 L 1049.84375 1028.970313 L 1052.382813 1026.9 L 1054.882813 1024.86875 L 1057.421875 1022.876563 L 1059.960938 1020.9625 L 1062.460938 1019.0875 L 1065 1017.251563 L 1067.539063 1015.49375 L 1070.039063 1013.775 L 1072.578125 1012.095313 L 1075.117188 1010.454688 L 1077.617188 1008.892188 L 1080.15625 1007.36875 L 1082.695313 1005.884375 L 1085.195313 1004.439063 L 1087.734375 1003.032813 L 1090.273438 1001.704688 L 1092.773438 1000.454688 L 1095.3125 999.204688 L 1097.851563 998.032813 L 1100.351563 996.9 L 1102.890625 995.80625 L 1107.96875 993.775 L 1110.46875 992.8375 L 1113.007813 991.978125 L 1115.507813 991.11875 L 1118.046875 990.3375 L 1120.585938 989.595313 L 1123.085938 988.93125 L 1125.625 988.267188 L 1128.164063 987.68125 L 1130.664063 987.134375 L 1135.742188 986.196875 L 1138.242188 985.80625 L 1140.78125 985.454688 L 1143.320313 985.18125 L 1145.859375 984.946875 L 1148.359375 984.751563 L 1150.898438 984.595313 L 1153.398438 984.517188 L 1155.9375 984.439063 L 1158.476563 984.439063 L 1160.976563 984.517188 L 1163.515625 984.595313 L 1166.054688 984.751563 L 1168.554688 984.946875 L 1173.632813 985.49375 L 1176.132813 985.845313 L 1181.210938 986.704688 L 1183.710938 987.2125 L 1186.25 987.759375 L 1188.789063 988.345313 L 1191.289063 988.970313 L 1193.828125 989.673438 L 1196.367188 990.415625 L 1198.90625 991.235938 L 1201.40625 992.05625 L 1203.945313 992.954688 L 1206.445313 993.892188 L 1211.523438 995.923438 L 1214.023438 997.017188 L 1216.5625 998.15 L 1219.101563 999.360938 L 1221.601563 1000.571875 L 1224.140625 1001.860938 L 1229.21875 1004.595313 L 1231.71875 1006.040625 L 1234.257813 1007.525 L 1236.796875 1009.048438 L 1239.296875 1010.65 L 1241.835938 1012.251563 L 1244.375 1013.93125 L 1246.875 1015.689063 L 1249.414063 1017.485938 L 1251.914063 1019.282813 L 1256.992188 1023.110938 L 1259.492188 1025.103125 L 1262.03125 1027.134375 L 1264.570313 1029.204688 L 1267.109375 1031.314063 L 1269.609375 1033.501563 L 1272.148438 1035.728125 L 1274.6875 1037.99375 L 1277.1875 1040.3375 L 1279.726563 1042.68125 L 1282.265625 1045.142188 L 1284.765625 1047.603125 L 1287.304688 1050.142188 L 1289.804688 1052.68125 L 1294.882813 1057.99375 L 1297.421875 1060.728125 L 1299.921875 1063.4625 L 1302.460938 1066.314063 L 1304.960938 1069.165625 L 1307.5 1072.095313 L 1310.039063 1075.064063 L 1312.578125 1078.071875 L 1315.078125 1081.157813 L 1317.617188 1084.24375 L 1320.15625 1087.407813 L 1322.65625 1090.610938 L 1325.195313 1093.892188 L 1327.734375 1097.2125 L 1330.234375 1100.571875 L 1335.3125 1107.446875 L 1337.8125 1110.9625 L 1340.351563 1114.517188 L 1342.890625 1118.110938 L 1345.390625 1121.782813 L 1347.929688 1125.49375 L 1350.46875 1129.24375 L 1352.96875 1133.071875 L 1355.507813 1136.939063 L 1358.046875 1140.845313 L 1360.546875 1144.790625 L 1363.085938 1148.775 L 1365.625 1152.8375 L 1368.125 1156.939063 L 1373.203125 1165.298438 L 1375.703125 1169.55625 L 1378.242188 1173.853125 L 1380.78125 1178.228125 L 1383.28125 1182.603125 L 1385.820313 1187.05625 L 1388.359375 1191.5875 L 1390.859375 1196.11875 L 1393.398438 1200.728125 L 1395.9375 1205.376563 L 1398.4375 1210.064063 L 1400.976563 1214.790625 L 1403.515625 1219.595313 L 1406.015625 1224.439063 L 1408.554688 1229.321875 L 1411.09375 1234.282813 L 1413.59375 1239.282813 L 1416.132813 1244.321875 L 1418.671875 1249.4 L 1421.171875 1254.55625 L 1423.710938 1259.751563 L 1426.25 1264.985938 L 1428.75 1270.298438 L 1431.289063 1275.610938 L 1433.828125 1281.001563 L 1436.328125 1286.43125 L 1438.867188 1291.939063 L 1441.40625 1297.485938 L 1443.90625 1303.071875 L 1446.445313 1308.696875 L 1448.984375 1314.360938 L 1451.484375 1320.103125 L 1454.023438 1325.884375 L 1456.5625 1331.74375 L 1459.0625 1337.603125 L 1461.601563 1343.540625 L 1464.140625 1349.55625 L 1466.640625 1355.571875 L 1469.179688 1361.626563 L 1471.71875 1367.798438 L 1474.21875 1373.970313 L 1476.757813 1380.18125 L 1479.296875 1386.470313 L 1481.796875 1392.798438 L 1484.335938 1399.165625 L 1486.875 1405.610938 L 1489.375 1412.05625 L 1494.453125 1425.18125 L 1496.953125 1431.782813 L 1499.492188 1438.4625 L 1502.03125 1445.18125 L 1504.53125 1451.978125 L 1507.070313 1458.775 L 1509.609375 1465.65 L 1512.148438 1472.564063 L 1514.648438 1479.55625 L 1517.1875 1486.5875 L 1519.6875 1493.657813 L 1522.226563 1500.767188 L 1524.765625 1507.915625 L 1527.265625 1515.142188 L 1529.804688 1522.407813 L 1532.34375 1529.7125 L 1534.84375 1537.095313 L 1537.382813 1544.517188 L 1539.921875 1551.978125 L 1542.421875 1559.478125 L 1544.960938 1567.05625 L 1547.5 1574.673438 L 1550.039063 1582.329688 L 1552.539063 1590.025 L 1555.078125 1597.798438 L 1557.617188 1605.610938 L 1560.117188 1613.4625 L 1565.195313 1629.321875 L 1567.695313 1637.36875 L 1570.234375 1645.415625 L 1572.734375 1653.501563 L 1575.273438 1661.665625 L 1577.8125 1669.86875 L 1580.3125 1678.110938 L 1582.851563 1686.43125 L 1585.390625 1694.790625 L 1587.890625 1703.189063 L 1590.429688 1711.626563 L 1592.96875 1720.142188 L 1595.507813 1728.696875 L 1598.007813 1737.290625 L 1603.085938 1754.634375 L 1605.585938 1763.384375 L 1608.125 1772.2125 L 1610.625 1781.040625 L 1613.164063 1789.946875 L 1615.703125 1798.892188 L 1618.203125 1807.876563 L 1620.742188 1816.939063 L 1623.28125 1826.040625 L 1625.78125 1835.18125 L 1628.320313 1844.360938 L 1630.859375 1853.61875 L 1633.398438 1862.915625 L 1635.898438 1872.251563 L 1638.4375 1881.626563 L 1640.976563 1891.079688 L 1643.476563 1900.571875 L 1646.015625 1910.103125 L 1648.554688 1919.7125 L 1651.054688 1929.321875 L 1656.132813 1948.775 L 1658.632813 1958.540625 L 1661.171875 1968.384375 L 1663.710938 1978.267188 L 1666.210938 1988.228125 L 1668.75 1998.189063 L 1671.289063 2008.228125 L 1673.789063 2018.30625 L 1678.867188 2038.61875 L 1681.367188 2048.853125 L 1683.90625 2059.126563 L 1686.445313 2069.478125 L 1688.945313 2079.86875 L 1691.484375 2090.298438 L 1694.023438 2100.767188 L 1696.523438 2111.275 L 1699.0625 2121.860938 L 1701.601563 2132.485938 L 1704.101563 2143.189063 L 1706.640625 2153.892188 L 1709.140625 2164.673438 L 1711.679688 2175.49375 L 1714.21875 2186.353125 L 1716.757813 2197.290625 L 1719.257813 2208.267188 L 1721.796875 2219.282813 L 1724.335938 2230.376563 L 1726.835938 2241.470313 L 1729.375 2252.642188 L 1731.914063 2263.853125 L 1734.414063 2275.142188 L 1736.953125 2286.470313 L 1739.492188 2297.8375 L 1741.992188 2309.24375 L 1744.53125 2320.728125 L 1747.03125 2332.2125 L 1752.109375 2355.415625 L 1754.648438 2367.095313 L 1757.148438 2378.775 L 1762.226563 2402.36875 L 1764.726563 2414.24375 L 1767.265625 2426.157813 L 1769.804688 2438.110938 L 1772.304688 2450.103125 L 1774.84375 2462.173438 L 1777.382813 2474.282813 L 1779.882813 2486.43125 L 1782.421875 2498.657813 L 1784.960938 2510.923438 L 1787.460938 2523.228125 L 1790 2535.571875" transform="matrix(.1 0 0 -.1 0 280.94)" fill="none" stroke-width="7.97" stroke-linejoin="round" stroke="#e14b3b" stroke-miterlimit="10" />
  <path d="M64.265625 258.96875C64.265625 256.761719 62.9375 255.277344 60.71875 255.277344 58.507813 255.277344 57.15625 256.804688 57.15625 259.070313 57.15625 261.433594 58.496094 262.875 60.71875 262.875 62.914063 262.875 64.265625 261.300781 64.265625 258.96875zM63.09375 259.003906C63.09375 261.246094 62.3125 262.40625 60.726563 262.40625 59.121094 262.40625 58.328125 261.097656 58.328125 259.003906 58.328125 256.960938 59.242188 255.746094 60.683594 255.746094 62.132813 255.746094 63.09375 256.996094 63.09375 259.003906M66.765625 257.363281L66.484375 257.363281 65.078125 257.675781 65.078125 257.996094C65.078125 257.996094 65.289063 257.976563 65.4375 257.976563 65.804688 257.976563 65.859375 258.121094 65.859375 258.542969L65.859375 264.066406C65.859375 264.691406 65.75 264.882813 65.046875 264.882813L65.046875 265.195313 67.867188 265.195313 67.867188 264.871094C67 264.871094 66.785156 264.726563 66.785156 264L66.785156 262.539063 66.828125 262.539063C67.15625 262.761719 67.53125 262.851563 67.957031 262.851563 69.296875 262.851563 70.398438 261.722656 70.398438 259.828125 70.398438 258.367188 69.632813 257.328125 68.527344 257.328125 67.867188 257.328125 67.332031 257.675781 66.796875 258.300781L66.765625 258.300781zM66.785156 258.769531C67 258.488281 67.476563 258.089844 68.070313 258.089844 68.894531 258.089844 69.386719 258.734375 69.386719 260.140625 69.386719 261.691406 68.792969 262.417969 68.011719 262.417969 67.386719 262.417969 67 261.914063 66.785156 261.679688L66.785156 258.769531M75.429688 261.144531C75.074219 261.613281 74.726563 262.015625 73.824219 262.015625 72.929688 262.015625 72.082031 261.3125 72.082031 259.773438L75.609375 259.773438C75.554688 258.210938 74.75 257.328125 73.53125 257.328125 72.226563 257.328125 71.179688 258.222656 71.179688 260.085938 71.179688 261.878906 72.21875 262.851563 73.554688 262.851563 74.703125 262.851563 75.242188 262.148438 75.640625 261.300781zM72.070313 259.359375C72.160156 258.324219 72.609375 257.777344 73.367188 257.777344 74.15625 257.777344 74.527344 258.535156 74.558594 259.359375L72.070313 259.359375M81.367188 259.316406C81.367188 258.03125 80.886719 257.328125 79.871094 257.328125 79.167969 257.328125 78.679688 257.730469 78.074219 258.265625L78.03125 258.265625 78.042969 257.363281 77.785156 257.363281 76.367188 257.6875 76.367188 258.011719C76.367188 258.011719 76.480469 257.988281 76.667969 257.988281 76.96875 257.988281 77.136719 258.074219 77.136719 258.480469L77.136719 261.613281C77.136719 262.238281 77.105469 262.425781 76.355469 262.425781L76.355469 262.738281 78.914063 262.738281 78.914063 262.425781C78.109375 262.425781 78.0625 262.238281 78.0625 261.613281L78.0625 258.746094C78.398438 258.445313 78.8125 258.042969 79.414063 258.042969 79.914063 258.042969 80.441406 258.253906 80.441406 259.59375L80.441406 261.613281C80.441406 262.238281 80.40625 262.425781 79.613281 262.425781L79.613281 262.738281 82.191406 262.738281 82.191406 262.425781C81.445313 262.425781 81.367188 262.238281 81.367188 261.613281L81.367188 259.316406M82.933594 260.910156L82.96875 262.828125 83.203125 262.828125 83.4375 262.574219 83.460938 262.574219C83.75 262.695313 84.085938 262.863281 84.730469 262.863281 85.734375 262.863281 86.605469 262.460938 86.605469 261.410156 86.605469 260.585938 86.058594 260.175781 85.042969 259.636719 84.105469 259.160156 83.738281 258.878906 83.738281 258.445313 83.738281 257.941406 84.128906 257.707031 84.640625 257.707031 85.320313 257.707031 85.734375 258.03125 85.980469 259.089844L86.28125 259.089844 86.25 257.386719 86.023438 257.386719 85.835938 257.621094 85.824219 257.621094C85.546875 257.484375 85.210938 257.328125 84.652344 257.328125 83.695313 257.328125 82.945313 257.820313 82.945313 258.734375 82.945313 259.558594 83.402344 259.949219 84.417969 260.464844 85.457031 260.976563 85.667969 261.191406 85.667969 261.714844 85.667969 262.238281 85.265625 262.449219 84.710938 262.449219 83.882813 262.449219 83.460938 262.058594 83.226563 260.910156L82.933594 260.910156M96.460938 262.070313L96.394531 262.070313C95.792969 262.070313 95.636719 261.9375 95.636719 261.234375L95.636719 257.40625 95.179688 257.40625 93.09375 257.550781 93.09375 258.011719C93.828125 258.011719 94.039063 258.042969 94.039063 258.691406L94.039063 261.253906C93.628906 261.601563 93.371094 261.757813 92.902344 261.757813 92.421875 261.757813 92.121094 261.625 92.121094 260.566406L92.121094 257.40625 91.597656 257.40625 89.746094 257.550781 89.746094 258.011719C90.347656 258.019531 90.527344 258.042969 90.527344 258.734375L90.527344 260.886719C90.527344 262.359375 91.0625 262.851563 92.175781 262.851563 92.925781 262.851563 93.328125 262.59375 94.050781 261.835938L94.09375 261.835938 94.09375 262.808594 94.53125 262.808594 96.460938 262.484375 96.460938 262.070313M99.144531 257.339844L98.507813 257.339844 96.789063 257.652344 96.789063 258.121094C96.789063 258.121094 97 258.097656 97.148438 258.097656 97.515625 258.097656 97.570313 258.246094 97.570313 258.691406L97.570313 263.945313C97.570313 264.570313 97.460938 264.746094 96.757813 264.746094L96.757813 265.195313 100.246094 265.195313 100.246094 264.738281C99.378906 264.738281 99.164063 264.589844 99.164063 263.867188L99.164063 262.574219 99.199219 262.574219C99.546875 262.796875 99.878906 262.863281 100.304688 262.863281 101.652344 262.863281 102.769531 261.722656 102.769531 259.828125 102.769531 258.074219 102.042969 257.316406 100.972656 257.316406 100.238281 257.316406 99.78125 257.675781 99.199219 258.253906L99.144531 258.253906zM99.164063 258.914063C99.398438 258.679688 99.746094 258.367188 100.191406 258.367188 100.738281 258.367188 101.03125 258.855469 101.03125 260.140625 101.03125 261.703125 100.605469 262.238281 100.023438 262.238281 99.578125 262.238281 99.320313 261.914063 99.164063 261.679688L99.164063 258.914063M112.894531 257.464844L110.652344 257.464844 110.652344 257.910156C111.078125 257.910156 111.378906 257.953125 111.378906 258.175781 111.378906 258.308594 111.355469 258.386719 111.3125 258.511719L110.507813 260.675781 110.296875 261.3125 110.21875 261.3125 110.015625 260.6875 109.226563 258.589844C109.15625 258.410156 109.113281 258.289063 109.113281 258.132813 109.113281 257.976563 109.226563 257.910156 109.636719 257.910156L109.636719 257.464844 106.871094 257.464844 106.871094 257.910156C107.371094 257.910156 107.4375 257.988281 107.664063 258.601563L107.785156 258.945313 107.003906 260.675781 106.769531 261.3125 106.679688 261.3125 106.480469 260.6875 105.597656 258.589844C105.53125 258.410156 105.488281 258.308594 105.488281 258.132813 105.488281 257.976563 105.597656 257.910156 106.023438 257.910156L106.023438 257.464844 103.011719 257.464844 103.011719 257.910156C103.503906 257.910156 103.621094 257.996094 103.867188 258.601563L105.644531 262.816406 106.703125 262.816406 108.042969 259.828125 108.085938 259.828125 109.179688 262.816406 110.253906 262.816406 112.058594 258.578125C112.269531 258.066406 112.492188 257.910156 112.894531 257.910156L112.894531 257.464844M115.867188 262.148438C115.96875 262.660156 116.191406 262.851563 116.929688 262.851563 117.765625 262.851563 118.144531 262.496094 118.511719 261.949219L118.265625 261.703125C118.101563 261.871094 117.910156 262.003906 117.734375 262.003906 117.496094 262.003906 117.386719 261.914063 117.386719 261.46875L117.386719 259.046875C117.386719 257.820313 116.617188 257.316406 115.222656 257.316406 113.929688 257.316406 113.113281 257.898438 113.113281 258.566406 113.113281 259.070313 113.46875 259.316406 113.792969 259.316406 114.183594 259.316406 114.53125 259.113281 114.53125 258.601563 114.53125 257.964844 114.652344 257.808594 115.101563 257.808594 115.632813 257.808594 115.789063 258.011719 115.789063 258.957031L115.789063 259.492188C114.730469 259.804688 112.867188 260.039063 112.867188 261.589844 112.867188 262.496094 113.460938 262.863281 114.273438 262.863281 115.042969 262.863281 115.289063 262.59375 115.824219 262.148438zM115.789063 261.65625C115.46875 261.96875 115.265625 262.070313 114.976563 262.070313 114.632813 262.070313 114.464844 261.824219 114.464844 261.277344 114.464844 260.441406 114.921875 260.195313 115.789063 259.929688L115.789063 261.65625M121.023438 257.363281L120.386719 257.363281 118.632813 257.707031 118.632813 258.1875C118.632813 258.1875 118.757813 258.167969 118.980469 258.167969 119.371094 258.167969 119.449219 258.386719 119.449219 258.789063L119.449219 261.523438C119.449219 262.148438 119.347656 262.292969 118.621094 262.292969L118.621094 262.738281 122.128906 262.738281 122.128906 262.292969C121.335938 262.292969 121.042969 262.171875 121.042969 261.445313L121.042969 259.148438C121.300781 258.855469 121.535156 258.644531 121.78125 258.644531 121.960938 258.644531 122.214844 259.113281 122.707031 259.113281 123.039063 259.113281 123.386719 258.855469 123.386719 258.210938 123.386719 257.640625 123.109375 257.296875 122.527344 257.296875 121.824219 257.296875 121.65625 257.742188 121.066406 258.523438L121.023438 258.523438 121.023438 257.363281M129.816406 262.605469L129.816406 262.148438 129.582031 262.148438C129.167969 262.148438 129 262.035156 129 261.46875L129 254.863281 128.375 254.863281 126.589844 255.253906 126.589844 255.734375C126.589844 255.734375 126.804688 255.722656 126.914063 255.722656 127.339844 255.722656 127.40625 255.8125 127.40625 256.300781L127.40625 257.574219 127.371094 257.574219C127.003906 257.394531 126.636719 257.328125 126.289063 257.328125 124.882813 257.328125 123.757813 258.210938 123.757813 260.261719 123.757813 261.691406 124.382813 262.851563 125.664063 262.851563 126.402344 262.851563 126.960938 262.449219 127.382813 262.082031L127.429688 262.082031 127.429688 262.796875 127.816406 262.796875zM127.40625 261.523438C127.039063 261.78125 126.8125 261.925781 126.378906 261.925781 125.789063 261.925781 125.484375 261.332031 125.484375 259.929688 125.484375 258.589844 125.832031 257.988281 126.402344 257.988281 127.015625 257.988281 127.304688 258.421875 127.40625 258.824219L127.40625 261.523438M132.890625 257.464844L132.890625 257.933594 133.738281 257.933594 133.738281 261.410156C133.738281 262.28125 133.617188 262.417969 132.800781 262.417969L132.800781 262.738281 135.800781 262.738281 135.800781 262.417969C134.878906 262.417969 134.664063 262.28125 134.664063 261.410156L134.664063 257.933594 136.023438 257.933594 136.023438 257.464844 134.664063 257.464844 134.664063 256.46875C134.664063 255.535156 134.785156 255.199219 135.199219 255.199219 135.757813 255.199219 135.8125 256.046875 136.371094 256.046875 136.628906 256.046875 136.828125 255.890625 136.828125 255.566406 136.828125 255.066406 136.304688 254.785156 135.578125 254.785156 134.796875 254.785156 134.398438 255.085938 134.09375 255.597656 133.804688 256.113281 133.738281 256.613281 133.738281 257.464844L132.890625 257.464844M138.976563 257.328125C137.472656 257.328125 136.480469 258.421875 136.480469 260.039063 136.480469 261.847656 137.417969 262.851563 138.976563 262.851563 140.429688 262.851563 141.453125 261.871094 141.453125 259.996094 141.453125 258.34375 140.507813 257.328125 138.976563 257.328125zM138.933594 257.753906C139.925781 257.753906 140.429688 258.679688 140.429688 260.050781 140.429688 261.871094 139.9375 262.40625 139.023438 262.40625 138.0625 262.417969 137.515625 261.667969 137.515625 259.894531 137.515625 258.464844 138.085938 257.753906 138.933594 257.753906M143.84375 257.363281L143.574219 257.363281 142.191406 257.699219 142.191406 258.011719C142.191406 258.011719 142.3125 257.988281 142.535156 257.988281 142.9375 257.988281 142.9375 258.1875 142.9375 258.589844L142.9375 261.65625C142.9375 262.28125 142.859375 262.417969 142.121094 262.417969L142.121094 262.738281 144.914063 262.738281 144.914063 262.417969C144.078125 262.417969 143.863281 262.304688 143.863281 261.601563L143.863281 259.058594C144.132813 258.613281 144.488281 258.144531 144.746094 258.144531 144.878906 258.144531 145.101563 258.523438 145.46875 258.523438 145.714844 258.523438 145.960938 258.34375 145.960938 257.921875 145.960938 257.542969 145.75 257.296875 145.3125 257.296875 144.777344 257.296875 144.445313 257.6875 143.875 258.511719L143.84375 258.511719 143.84375 257.363281M154.300781 257.472656L153.710938 257.472656 153.308594 257.988281 153.261719 257.988281C153.074219 257.707031 152.714844 257.394531 152.148438 257.394531 150.550781 257.394531 149.269531 259.070313 149.257813 261.210938 149.246094 262.339844 149.828125 262.875 150.5625 262.875 151.210938 262.875 151.902344 262.503906 152.480469 261.792969L152.558594 261.792969C152.527344 261.992188 152.480469 262.136719 152.480469 262.347656 152.480469 262.671875 152.714844 262.851563 153.09375 262.851563 153.796875 262.851563 154.257813 262.347656 154.714844 261.65625L154.492188 261.488281C154.34375 261.679688 154.023438 262.070313 153.664063 262.070313 153.484375 262.070313 153.441406 261.980469 153.441406 261.835938 153.441406 261.667969 153.496094 261.421875 153.496094 261.421875zM153.039063 258.867188C153.039063 259.257813 152.839844 260.285156 152.726563 260.730469 152.515625 261.535156 151.789063 262.136719 151.089844 262.136719 150.574219 262.136719 150.238281 261.847656 150.238281 260.863281 150.238281 259.347656 150.953125 257.820313 152.070313 257.820313 152.695313 257.820313 153.039063 258.332031 153.039063 258.867188M165.394531 259.894531L165.394531 259.785156 158.9375 256.636719 158.9375 257.386719 163.867188 259.839844 158.9375 262.292969 158.9375 263.019531 165.394531 259.894531M174.523438 259.203125C174.523438 256.90625 173.515625 255.578125 172.078125 255.578125 170.460938 255.578125 169.601563 257.050781 169.601563 259.167969 169.601563 261.144531 170.257813 262.863281 172.054688 262.863281 173.808594 262.863281 174.523438 261.113281 174.523438 259.203125zM173.4375 259.269531C173.4375 261.410156 172.9375 262.460938 172.054688 262.460938 171.164063 262.460938 170.671875 261.390625 170.671875 259.226563 170.671875 257.015625 171.164063 255.957031 172.042969 255.957031 172.960938 255.957031 173.4375 257.003906 173.4375 259.269531" />
  <path d="M 2706.71875 467.915625 L 4772.890625 467.915625 M 2706.71875 597.05625 L 4772.890625 597.05625 M 2706.71875 726.196875 L 4772.890625 726.196875 M 2706.71875 855.298438 L 4772.890625 855.298438 M 2706.71875 984.439063 L 4772.890625 984.439063 M 2706.71875 1113.579688 L 4772.890625 1113.579688 M 2706.71875 1242.720313 L 4772.890625 1242.720313 M 2706.71875 1371.860938 L 4772.890625 1371.860938 M 2706.71875 1501.001563 L 4772.890625 1501.001563 M 2706.71875 1630.142188 L 4772.890625 1630.142188 M 2706.71875 1759.282813 L 4772.890625 1759.282813 M 2706.71875 1888.423438 L 4772.890625 1888.423438 M 2706.71875 2017.525 L 4772.890625 2017.525 M 2706.71875 2146.665625 L 4772.890625 2146.665625 M 2706.71875 2275.80625 L 4772.890625 2275.80625 M 2706.71875 2404.946875 L 4772.890625 2404.946875 M 2706.71875 2534.0875 L 4772.890625 2534.0875 M 2706.71875 467.915625 L 2706.71875 2534.0875 M 2835.859375 467.915625 L 2835.859375 2534.0875 M 2964.960938 467.915625 L 2964.960938 2534.0875 M 3094.101563 467.915625 L 3094.101563 2534.0875 M 3223.242188 467.915625 L 3223.242188 2534.0875 M 3352.382813 467.915625 L 3352.382813 2534.0875 M 3481.523438 467.915625 L 3481.523438 2534.0875 M 3610.664063 467.915625 L 3610.664063 2534.0875 M 3739.804688 467.915625 L 3739.804688 2534.0875 M 3868.945313 467.915625 L 3868.945313 2534.0875 M 3998.046875 467.915625 L 3998.046875 2534.0875 M 4127.1875 467.915625 L 4127.1875 2534.0875 M 4256.328125 467.915625 L 4256.328125 2534.0875 M 4385.46875 467.915625 L 4385.46875 2534.0875 M 4514.609375 467.915625 L 4514.609375 2534.0875 M 4643.75 467.915625 L 4643.75 2534.0875 M 4772.890625 467.915625 L 4772.890625 2534.0875" transform="matrix(.1 0 0 -.1 0 280.94)" fill="none" stroke-width="3.985" stroke-linejoin="round" stroke="#dbdbdc" stroke-miterlimit="10" />
  <path d="M 2706.71875 467.915625 L 4772.890625 467.915625 M 2706.71875 984.439063 L 4772.890625 984.439063 M 2706.71875 1501.001563 L 4772.890625 1501.001563 M 2706.71875 2017.525 L 4772.890625 2017.525 M 2706.71875 2534.009375 L 4772.890625 2534.009375 M 2706.71875 467.915625 L 2706.71875 2534.0875 M 3223.242188 467.915625 L 3223.242188 2534.0875 M 3739.804688 467.915625 L 3739.804688 2534.0875 M 4256.328125 467.915625 L 4256.328125 2534.0875 M 4772.773438 467.915625 L 4772.773438 2534.0875" transform="matrix(.1 0 0 -.1 0 280.94)" fill="none" stroke-width="3.985" stroke-linejoin="round" stroke="#a5a5a6" stroke-miterlimit="10" />
  <path d="M 3223.203125 1998.970313 L 3223.203125 2036.079688" transform="matrix(.1 0 0 -.1 0 280.94)" fill="none" stroke-width="7.97" stroke-linejoin="round" stroke="#000" stroke-miterlimit="10" />
  <path d="M316.191406 89.730469L322.839844 89.730469 322.839844 88.972656 316.191406 88.972656zM328.777344 90.457031L328.453125 90.457031C328.195313 91.125 328.050781 91.359375 327.460938 91.359375L325.910156 91.359375 325.128906 91.390625 325.128906 91.335938 326.601563 89.941406C327.785156 88.746094 328.417969 87.980469 328.417969 86.984375 328.417969 85.8125 327.539063 85.054688 326.277344 85.054688 325.195313 85.054688 324.4375 85.679688 324.089844 86.761719L324.359375 86.875C324.773438 86.035156 325.261719 85.78125 325.988281 85.78125 326.847656 85.78125 327.382813 86.316406 327.382813 87.152344 327.382813 88.324219 326.824219 89.027344 325.71875 90.164063L324.023438 91.859375 324.023438 92.238281 328.417969 92.238281 328.777344 90.457031" />
  <path d="M 4256.289063 1998.970313 L 4256.289063 2036.079688" transform="matrix(.1 0 0 -.1 0 280.94)" fill="none" stroke-width="7.97" stroke-linejoin="round" stroke="#000" stroke-miterlimit="10" />
  <path d="M 428.078125 90.457031 L 427.753906 90.457031 C 427.496094 91.125 427.351563 91.359375 426.757813 91.359375 L 425.210938 91.359375 L 424.429688 91.390625 L 424.429688 91.335938 L 425.902344 89.941406 C 427.085938 88.746094 427.71875 87.980469 427.71875 86.984375 C 427.71875 85.8125 426.839844 85.054688 425.578125 85.054688 C 424.496094 85.054688 423.738281 85.679688 423.390625 86.761719 L 423.660156 86.875 C 424.070313 86.035156 424.5625 85.78125 425.289063 85.78125 C 426.148438 85.78125 426.679688 86.316406 426.679688 87.152344 C 426.679688 88.324219 426.121094 89.027344 425.019531 90.164063 L 423.324219 91.859375 L 423.324219 92.238281 L 427.71875 92.238281 L 428.078125 90.457031" />
  <path d="M 3721.210938 984.439063 L 3758.320313 984.439063" transform="matrix(.1 0 0 -.1 0 280.94)" fill="none" stroke-width="7.97" stroke-linejoin="round" stroke="#000" stroke-miterlimit="10" />
  <path d="M355.191406 183.628906L361.839844 183.628906 361.839844 182.871094 355.191406 182.871094zM367.964844 184.378906L367.964844 183.605469 366.828125 183.605469 366.828125 178.945313 366.148438 178.945313 362.746094 183.675781 362.746094 184.378906 365.835938 184.378906 365.835938 186.140625 366.828125 186.140625 366.828125 184.378906zM365.835938 183.605469L363.359375 183.605469 363.359375 183.5625 365.789063 180.160156 365.835938 180.160156 365.835938 183.605469" />
  <path d="M 3721.210938 1501.001563 L 3758.320313 1501.001563" transform="matrix(.1 0 0 -.1 0 280.94)" fill="none" stroke-width="7.97" stroke-linejoin="round" stroke="#000" stroke-miterlimit="10" />
  <path d="M355.191406 131.929688L361.839844 131.929688 361.839844 131.171875 355.191406 131.171875zM367.777344 132.65625L367.453125 132.65625C367.195313 133.324219 367.050781 133.558594 366.460938 133.558594L364.910156 133.558594 364.128906 133.59375 364.128906 133.535156 365.601563 132.140625C366.785156 130.949219 367.417969 130.179688 367.417969 129.183594 367.417969 128.011719 366.539063 127.257813 365.277344 127.257813 364.195313 127.257813 363.4375 127.882813 363.089844 128.960938L363.359375 129.074219C363.773438 128.238281 364.261719 127.980469 364.988281 127.980469 365.847656 127.980469 366.382813 128.515625 366.382813 129.351563 366.382813 130.523438 365.824219 131.226563 364.71875 132.363281L363.023438 134.058594 363.023438 134.441406 367.417969 134.441406 367.777344 132.65625" />
  <path d="M 2756.679688 2017.525 L 4722.890625 2017.525" transform="matrix(.1 0 0 -.1 0 280.94)" fill="none" stroke-width="7.97" stroke-linejoin="round" stroke="#000" stroke-miterlimit="10" />
  <path d="M 271.804688 79.1875 L 277.273438 81.25 L 275.46875 79.1875 L 277.273438 77.121094" />
  <path d="M 2718.046875 2017.525 L 2772.734375 1996.9 L 2754.6875 2017.525 L 2772.734375 2038.189063 Z M 2718.046875 2017.525" transform="matrix(.1 0 0 -.1 0 280.94)" fill="none" stroke-width="7.97" stroke="#000" stroke-miterlimit="10" />
  <path d="M 476.152344 79.1875 L 470.683594 77.121094 L 472.488281 79.1875 L 470.683594 81.25" />
  <path d="M 4761.523438 2017.525 L 4706.835938 2038.189063 L 4724.882813 2017.525 L 4706.835938 1996.9 Z M 4761.523438 2017.525" transform="matrix(.1 0 0 -.1 0 280.94)" fill="none" stroke-width="7.97" stroke="#000" stroke-miterlimit="10" />
  <path d="M 484.914063 78.515625 L 484.882813 78.515625 L 484.746094 77.945313 C 484.589844 77.34375 484.378906 76.851563 484.109375 76.539063 L 483.945313 76.539063 L 482.390625 76.71875 L 482.390625 77.054688 C 482.390625 77.054688 482.5625 77.019531 482.738281 77.019531 C 483.476563 77.007813 483.664063 77.308594 483.964844 78.246094 L 484.277344 79.261719 L 483.476563 80.433594 C 483.039063 81.058594 482.839844 81.070313 482.796875 81.070313 C 482.605469 81.070313 482.339844 80.925781 482.09375 80.925781 C 481.824219 80.925781 481.65625 81.171875 481.65625 81.394531 C 481.65625 81.671875 481.824219 81.941406 482.304688 81.941406 C 482.972656 81.941406 483.339844 81.417969 483.699219 80.835938 L 484.414063 79.675781 L 484.457031 79.675781 L 484.734375 80.800781 C 484.890625 81.527344 485.136719 81.949219 485.648438 81.949219 C 486.410156 81.949219 486.878906 81.191406 487.203125 80.703125 L 486.96875 80.523438 C 486.664063 80.925781 486.453125 81.148438 486.164063 81.148438 C 485.816406 81.148438 485.59375 80.734375 485.28125 79.710938 L 485.046875 78.949219 L 485.726563 77.867188 C 485.917969 77.554688 486.074219 77.398438 486.332031 77.398438 C 486.476563 77.398438 486.734375 77.511719 486.910156 77.511719 C 487.214844 77.511719 487.425781 77.253906 487.425781 76.988281 C 487.425781 76.675781 487.289063 76.496094 486.867188 76.496094 C 486.207031 76.496094 485.761719 77.042969 485.460938 77.578125 L 484.914063 78.515625" />
  <path d="M 3739.804688 517.876563 L 3739.804688 2484.126563" transform="matrix(.1 0 0 -.1 0 280.94)" fill="none" stroke-width="7.97" stroke-linejoin="round" stroke="#000" stroke-miterlimit="10" />
  <path d="M 373.980469 233.015625 L 376.042969 227.546875 L 373.980469 229.351563 L 371.914063 227.546875" />
  <path d="M 3739.804688 479.24375 L 3760.429688 533.93125 L 3739.804688 515.884375 L 3719.140625 533.93125 Z M 3739.804688 479.24375" transform="matrix(.1 0 0 -.1 0 280.94)" fill="none" stroke-width="7.97" stroke="#000" stroke-miterlimit="10" />
  <path d="M 373.980469 28.664063 L 371.914063 34.136719 L 373.980469 32.328125 L 376.042969 34.136719" />
  <path d="M 3739.804688 2522.759375 L 3719.140625 2468.032813 L 3739.804688 2486.11875 L 3760.429688 2468.032813 Z M 3739.804688 2522.759375" transform="matrix(.1 0 0 -.1 0 280.94)" fill="none" stroke-width="7.97" stroke="#000" stroke-miterlimit="10" />
  <path d="M373.898438 17.511719C373.765625 16.621094 373.6875 16.265625 373.441406 15.839844L373.273438 15.839844 371.691406 15.964844 371.691406 16.285156C371.691406 16.285156 371.925781 16.265625 372.082031 16.265625 372.761719 16.265625 372.820313 16.8125 372.898438 17.3125L373.554688 21.238281C373.242188 21.71875 372.4375 22.78125 372.226563 22.78125 371.980469 22.78125 371.859375 22.1875 371.433594 22.1875 371.179688 22.1875 371 22.335938 371 22.667969 371 23.082031 371.390625 23.394531 371.859375 23.394531 372.707031 23.394531 373.488281 22.132813 374.324219 20.972656 374.90625 20.171875 375.539063 19.210938 376.140625 18.148438 376.5 17.546875 376.632813 17.046875 376.632813 16.609375 376.632813 16.132813 376.34375 15.761719 375.929688 15.761719 375.609375 15.761719 375.4375 15.964844 375.4375 16.199219 375.4375 16.621094 375.984375 16.933594 375.984375 17.222656 375.984375 17.492188 375.886719 17.761719 375.617188 18.195313L374.335938 20.257813 374.269531 20.257813 374.167969 19.144531 373.898438 17.511719M369.523438 87.003906C369.523438 84.707031 368.515625 83.378906 367.078125 83.378906 365.460938 83.378906 364.601563 84.851563 364.601563 86.96875 364.601563 88.945313 365.257813 90.664063 367.054688 90.664063 368.808594 90.664063 369.523438 88.910156 369.523438 87.003906zM368.4375 87.070313C368.4375 89.210938 367.9375 90.261719 367.054688 90.261719 366.164063 90.261719 365.671875 89.191406 365.671875 87.027344 365.671875 84.816406 366.164063 83.757813 367.042969 83.757813 367.960938 83.757813 368.4375 84.804688 368.4375 87.070313" />
  <path d="M 3106.132813 463.15 L 3114.726563 504.7125 L 3117.226563 516.939063 L 3119.765625 529.0875 L 3122.304688 541.196875 L 3124.804688 553.228125 L 3127.34375 565.259375 L 3129.882813 577.2125 L 3132.382813 589.126563 L 3134.921875 600.9625 L 3137.460938 612.759375 L 3139.960938 624.517188 L 3142.5 636.235938 L 3145.039063 647.915625 L 3147.539063 659.517188 L 3150.078125 671.079688 L 3152.617188 682.564063 L 3155.117188 694.048438 L 3157.65625 705.454688 L 3160.195313 716.821875 L 3162.695313 728.15 L 3165.234375 739.4 L 3167.773438 750.610938 L 3170.273438 761.782813 L 3175.351563 783.970313 L 3177.851563 794.985938 L 3180.390625 805.9625 L 3182.929688 816.860938 L 3185.46875 827.720313 L 3187.96875 838.540625 L 3190.507813 849.321875 L 3193.007813 860.025 L 3195.546875 870.728125 L 3198.085938 881.314063 L 3200.585938 891.9 L 3203.125 902.446875 L 3205.664063 912.915625 L 3208.164063 923.345313 L 3210.703125 933.696875 L 3213.242188 944.009375 L 3215.742188 954.282813 L 3218.28125 964.517188 L 3220.820313 974.7125 L 3223.359375 984.829688 L 3225.859375 994.907813 L 3228.398438 1004.946875 L 3230.9375 1014.907813 L 3233.4375 1024.829688 L 3235.976563 1034.7125 L 3238.515625 1044.55625 L 3241.015625 1054.321875 L 3243.554688 1064.0875 L 3246.054688 1073.735938 L 3248.59375 1083.384375 L 3251.132813 1092.954688 L 3253.632813 1102.485938 L 3256.171875 1111.978125 L 3258.710938 1121.43125 L 3261.210938 1130.80625 L 3263.75 1140.142188 L 3266.289063 1149.439063 L 3268.828125 1158.696875 L 3271.328125 1167.876563 L 3273.867188 1177.017188 L 3276.40625 1186.079688 L 3278.90625 1195.142188 L 3281.445313 1204.126563 L 3283.945313 1213.071875 L 3289.023438 1230.80625 L 3291.523438 1239.595313 L 3294.0625 1248.345313 L 3296.601563 1257.017188 L 3299.101563 1265.689063 L 3301.640625 1274.282813 L 3306.71875 1291.314063 L 3309.21875 1299.751563 L 3311.757813 1308.15 L 3314.296875 1316.509375 L 3316.796875 1324.790625 L 3319.335938 1333.032813 L 3321.875 1341.235938 L 3324.375 1349.4 L 3326.914063 1357.525 L 3329.414063 1365.571875 L 3334.492188 1381.509375 L 3337.03125 1389.439063 L 3339.53125 1397.251563 L 3342.070313 1405.064063 L 3344.609375 1412.8375 L 3347.109375 1420.532813 L 3349.648438 1428.189063 L 3352.1875 1435.80625 L 3354.6875 1443.345313 L 3357.226563 1450.884375 L 3359.765625 1458.345313 L 3362.265625 1465.728125 L 3364.804688 1473.110938 L 3367.34375 1480.415625 L 3369.84375 1487.68125 L 3374.921875 1502.05625 L 3377.421875 1509.165625 L 3379.960938 1516.235938 L 3382.460938 1523.228125 L 3385 1530.18125 L 3387.539063 1537.095313 L 3390.078125 1543.970313 L 3392.578125 1550.80625 L 3395.117188 1557.564063 L 3397.65625 1564.282813 L 3400.15625 1570.9625 L 3402.695313 1577.564063 L 3405.234375 1584.126563 L 3407.734375 1590.65 L 3410.273438 1597.134375 L 3412.8125 1603.540625 L 3415.3125 1609.907813 L 3417.851563 1616.235938 L 3420.390625 1622.525 L 3422.890625 1628.735938 L 3425.429688 1634.907813 L 3427.96875 1641.040625 L 3430.46875 1647.134375 L 3433.007813 1653.15 L 3435.546875 1659.126563 L 3438.046875 1665.064063 L 3440.585938 1670.923438 L 3443.125 1676.74375 L 3445.625 1682.525 L 3448.164063 1688.267188 L 3450.703125 1693.93125 L 3453.203125 1699.55625 L 3455.742188 1705.142188 L 3458.28125 1710.689063 L 3460.78125 1716.157813 L 3463.320313 1721.5875 L 3465.859375 1726.978125 L 3468.398438 1732.329688 L 3470.898438 1737.603125 L 3473.4375 1742.8375 L 3475.9375 1748.032813 L 3478.476563 1753.15 L 3481.015625 1758.228125 L 3483.515625 1763.30625 L 3488.59375 1773.228125 L 3491.09375 1778.110938 L 3493.632813 1782.954688 L 3496.171875 1787.720313 L 3498.671875 1792.485938 L 3501.210938 1797.173438 L 3506.289063 1806.392188 L 3508.789063 1810.923438 L 3511.328125 1815.415625 L 3513.828125 1819.86875 L 3516.367188 1824.282813 L 3518.90625 1828.61875 L 3521.40625 1832.915625 L 3523.945313 1837.173438 L 3526.484375 1841.353125 L 3528.984375 1845.49375 L 3531.523438 1849.595313 L 3534.0625 1853.657813 L 3536.5625 1857.642188 L 3539.101563 1861.626563 L 3541.640625 1865.49375 L 3544.140625 1869.360938 L 3546.679688 1873.15 L 3549.21875 1876.9 L 3551.71875 1880.610938 L 3554.257813 1884.282813 L 3556.796875 1887.876563 L 3559.296875 1891.43125 L 3561.835938 1894.946875 L 3564.375 1898.384375 L 3566.875 1901.782813 L 3569.414063 1905.142188 L 3571.953125 1908.4625 L 3574.453125 1911.704688 L 3576.992188 1914.946875 L 3579.53125 1918.071875 L 3582.03125 1921.196875 L 3587.109375 1927.290625 L 3589.648438 1930.259375 L 3592.148438 1933.15 L 3594.6875 1936.001563 L 3597.226563 1938.814063 L 3599.726563 1941.5875 L 3602.265625 1944.321875 L 3604.804688 1946.978125 L 3607.304688 1949.595313 L 3609.84375 1952.173438 L 3612.34375 1954.673438 L 3614.882813 1957.134375 L 3617.421875 1959.55625 L 3619.921875 1961.939063 L 3622.460938 1964.24375 L 3625 1966.509375 L 3627.539063 1968.735938 L 3630.039063 1970.923438 L 3632.578125 1973.032813 L 3635.117188 1975.103125 L 3637.617188 1977.134375 L 3640.15625 1979.126563 L 3642.695313 1981.040625 L 3645.195313 1982.915625 L 3647.734375 1984.7125 L 3650.234375 1986.509375 L 3652.773438 1988.228125 L 3655.3125 1989.907813 L 3657.8125 1991.548438 L 3660.351563 1993.110938 L 3662.890625 1994.634375 L 3665.390625 1996.11875 L 3667.929688 1997.564063 L 3670.46875 1998.93125 L 3673.007813 2000.259375 L 3675.507813 2001.548438 L 3678.046875 2002.798438 L 3680.585938 2003.970313 L 3683.085938 2005.103125 L 3685.625 2006.196875 L 3688.164063 2007.2125 L 3690.664063 2008.189063 L 3693.203125 2009.126563 L 3695.742188 2010.025 L 3698.242188 2010.845313 L 3700.78125 2011.665625 L 3703.28125 2012.407813 L 3708.359375 2013.735938 L 3710.898438 2014.321875 L 3713.398438 2014.86875 L 3718.476563 2015.80625 L 3720.976563 2016.196875 L 3726.054688 2016.821875 L 3728.554688 2017.05625 L 3731.09375 2017.251563 L 3733.632813 2017.407813 L 3736.132813 2017.485938 L 3738.671875 2017.525 L 3741.210938 2017.525 L 3743.710938 2017.485938 L 3746.25 2017.36875 L 3748.789063 2017.2125 L 3751.289063 2017.017188 L 3753.828125 2016.782813 L 3756.367188 2016.470313 L 3758.867188 2016.11875 L 3761.40625 2015.728125 L 3763.945313 2015.298438 L 3766.445313 2014.790625 L 3768.984375 2014.24375 L 3771.523438 2013.657813 L 3774.023438 2012.99375 L 3776.5625 2012.290625 L 3779.101563 2011.548438 L 3781.601563 2010.767188 L 3784.140625 2009.946875 L 3786.640625 2009.048438 L 3791.71875 2007.095313 L 3794.257813 2006.040625 L 3796.757813 2004.985938 L 3801.835938 2002.642188 L 3804.335938 2001.392188 L 3806.875 2000.103125 L 3809.414063 1998.775 L 3811.914063 1997.407813 L 3814.453125 1995.9625 L 3816.992188 1994.478125 L 3819.492188 1992.954688 L 3822.03125 1991.353125 L 3824.570313 1989.7125 L 3827.109375 1988.032813 L 3829.609375 1986.314063 L 3832.148438 1984.517188 L 3834.648438 1982.68125 L 3837.1875 1980.80625 L 3839.726563 1978.892188 L 3842.226563 1976.9 L 3844.765625 1974.86875 L 3847.304688 1972.798438 L 3849.804688 1970.689063 L 3852.34375 1968.501563 L 3854.882813 1966.275 L 3857.382813 1964.009375 L 3859.921875 1961.665625 L 3862.460938 1959.282813 L 3864.960938 1956.860938 L 3867.5 1954.4 L 3870.039063 1951.860938 L 3872.539063 1949.282813 L 3875.078125 1946.665625 L 3877.617188 1944.009375 L 3880.117188 1941.275 L 3882.65625 1938.501563 L 3885.195313 1935.689063 L 3887.695313 1932.8375 L 3890.234375 1929.907813 L 3892.773438 1926.939063 L 3895.273438 1923.93125 L 3900.351563 1917.759375 L 3902.851563 1914.55625 L 3905.390625 1911.353125 L 3910.46875 1904.790625 L 3912.96875 1901.392188 L 3915.507813 1897.99375 L 3918.007813 1894.55625 L 3920.546875 1891.040625 L 3923.085938 1887.485938 L 3925.585938 1883.853125 L 3930.664063 1876.509375 L 3933.164063 1872.720313 L 3935.703125 1868.93125 L 3938.242188 1865.064063 L 3940.742188 1861.157813 L 3943.28125 1857.2125 L 3945.820313 1853.189063 L 3948.359375 1849.126563 L 3950.859375 1845.025 L 3953.398438 1840.884375 L 3955.9375 1836.665625 L 3958.4375 1832.446875 L 3963.515625 1823.775 L 3966.015625 1819.360938 L 3968.554688 1814.946875 L 3971.054688 1810.415625 L 3973.59375 1805.884375 L 3976.132813 1801.275 L 3978.632813 1796.626563 L 3981.171875 1791.939063 L 3983.710938 1787.173438 L 3986.210938 1782.407813 L 3991.289063 1772.642188 L 3993.828125 1767.720313 L 3996.328125 1762.720313 L 3998.867188 1757.68125 L 4001.40625 1752.564063 L 4003.90625 1747.446875 L 4006.445313 1742.251563 L 4008.945313 1737.017188 L 4011.484375 1731.704688 L 4014.023438 1726.353125 L 4016.523438 1720.9625 L 4019.0625 1715.532813 L 4021.601563 1710.064063 L 4024.101563 1704.517188 L 4026.640625 1698.93125 L 4029.179688 1693.30625 L 4031.71875 1687.603125 L 4034.21875 1681.860938 L 4036.757813 1676.079688 L 4039.296875 1670.259375 L 4041.796875 1664.360938 L 4044.335938 1658.423438 L 4046.875 1652.446875 L 4049.375 1646.43125 L 4051.914063 1640.3375 L 4054.453125 1634.204688 L 4056.953125 1628.032813 L 4062.03125 1615.532813 L 4064.53125 1609.204688 L 4067.070313 1602.8375 L 4069.609375 1596.392188 L 4072.109375 1589.907813 L 4074.648438 1583.384375 L 4077.1875 1576.821875 L 4079.6875 1570.18125 L 4082.226563 1563.501563 L 4084.765625 1556.782813 L 4087.265625 1550.025 L 4089.804688 1543.189063 L 4092.34375 1536.314063 L 4094.84375 1529.4 L 4097.382813 1522.446875 L 4099.921875 1515.415625 L 4102.421875 1508.345313 L 4104.960938 1501.235938 L 4107.460938 1494.048438 L 4112.539063 1479.595313 L 4115.078125 1472.251563 L 4117.578125 1464.907813 L 4120.117188 1457.485938 L 4122.65625 1450.025 L 4125.15625 1442.485938 L 4127.695313 1434.946875 L 4130.234375 1427.329688 L 4132.734375 1419.673438 L 4137.8125 1404.204688 L 4140.3125 1396.392188 L 4145.390625 1380.610938 L 4147.890625 1372.642188 L 4150.429688 1364.634375 L 4152.96875 1356.5875 L 4155.46875 1348.4625 L 4158.007813 1340.3375 L 4160.546875 1332.134375 L 4163.046875 1323.853125 L 4165.585938 1315.571875 L 4168.125 1307.2125 L 4170.625 1298.814063 L 4173.164063 1290.3375 L 4175.703125 1281.821875 L 4178.203125 1273.30625 L 4180.742188 1264.7125 L 4183.28125 1256.040625 L 4185.78125 1247.329688 L 4188.320313 1238.579688 L 4190.859375 1229.790625 L 4193.398438 1220.9625 L 4195.898438 1212.05625 L 4198.4375 1203.110938 L 4200.9375 1194.126563 L 4203.476563 1185.064063 L 4206.015625 1175.9625 L 4208.515625 1166.821875 L 4213.59375 1148.384375 L 4216.09375 1139.0875 L 4218.632813 1129.751563 L 4221.171875 1120.3375 L 4223.671875 1110.923438 L 4226.210938 1101.43125 L 4231.289063 1082.290625 L 4233.789063 1072.642188 L 4236.328125 1062.954688 L 4238.828125 1053.228125 L 4243.90625 1033.61875 L 4246.40625 1023.735938 L 4251.484375 1003.814063 L 4253.984375 993.775 L 4256.523438 983.696875 L 4259.0625 973.540625 L 4261.5625 963.345313 L 4264.101563 953.15 L 4266.640625 942.8375 L 4269.140625 932.525 L 4271.679688 922.134375 L 4274.21875 911.704688 L 4276.71875 901.235938 L 4281.796875 880.142188 L 4284.335938 869.478125 L 4286.835938 858.814063 L 4289.375 848.110938 L 4291.875 837.329688 L 4294.414063 826.509375 L 4296.953125 815.610938 L 4299.453125 804.7125 L 4301.992188 793.735938 L 4304.53125 782.720313 L 4307.03125 771.626563 L 4309.570313 760.49375 L 4312.109375 749.321875 L 4314.648438 738.110938 L 4317.148438 726.860938 L 4319.6875 715.532813 L 4322.226563 704.165625 L 4324.726563 692.759375 L 4327.265625 681.275 L 4329.804688 669.751563 L 4332.304688 658.189063 L 4334.84375 646.5875 L 4337.34375 634.907813 L 4339.882813 623.189063 L 4342.421875 611.43125 L 4344.921875 599.634375 L 4347.460938 587.759375 L 4350 575.845313 L 4352.539063 563.892188 L 4355.039063 551.860938 L 4357.578125 539.829688 L 4360.117188 527.720313 L 4362.617188 515.532813 L 4365.15625 503.345313 L 4367.695313 491.079688 L 4370.195313 478.775 L 4372.734375 466.43125" transform="matrix(.1 0 0 -.1 0 280.94)" fill="none" stroke-width="7.97" stroke-linejoin="round" stroke="#e14b3b" stroke-miterlimit="10" />
  <path d="M314.664063 258.96875C314.664063 256.761719 313.339844 255.277344 311.117188 255.277344 308.90625 255.277344 307.558594 256.804688 307.558594 259.070313 307.558594 261.433594 308.898438 262.875 311.117188 262.875 313.3125 262.875 314.664063 261.300781 314.664063 258.96875zM313.492188 259.003906C313.492188 261.246094 312.714844 262.40625 311.128906 262.40625 309.523438 262.40625 308.730469 261.097656 308.730469 259.003906 308.730469 256.960938 309.644531 255.746094 311.082031 255.746094 312.53125 255.746094 313.492188 256.996094 313.492188 259.003906M317.265625 257.363281L316.984375 257.363281 315.578125 257.675781 315.578125 257.996094C315.578125 257.996094 315.789063 257.976563 315.9375 257.976563 316.304688 257.976563 316.359375 258.121094 316.359375 258.542969L316.359375 264.066406C316.359375 264.691406 316.246094 264.882813 315.546875 264.882813L315.546875 265.195313 318.367188 265.195313 318.367188 264.871094C317.496094 264.871094 317.285156 264.726563 317.285156 264L317.285156 262.539063 317.328125 262.539063C317.65625 262.761719 318.03125 262.851563 318.457031 262.851563 319.796875 262.851563 320.898438 261.722656 320.898438 259.828125 320.898438 258.367188 320.132813 257.328125 319.027344 257.328125 318.367188 257.328125 317.832031 257.675781 317.296875 258.300781L317.265625 258.300781zM317.285156 258.769531C317.496094 258.488281 317.976563 258.089844 318.570313 258.089844 319.394531 258.089844 319.886719 258.734375 319.886719 260.140625 319.886719 261.691406 319.292969 262.417969 318.511719 262.417969 317.886719 262.417969 317.496094 261.914063 317.285156 261.679688L317.285156 258.769531M325.929688 261.144531C325.574219 261.613281 325.226563 262.015625 324.324219 262.015625 323.429688 262.015625 322.582031 261.3125 322.582031 259.773438L326.109375 259.773438C326.054688 258.210938 325.25 257.328125 324.03125 257.328125 322.726563 257.328125 321.679688 258.222656 321.679688 260.085938 321.679688 261.878906 322.71875 262.851563 324.054688 262.851563 325.203125 262.851563 325.742188 262.148438 326.140625 261.300781zM322.570313 259.359375C322.660156 258.324219 323.109375 257.777344 323.867188 257.777344 324.65625 257.777344 325.027344 258.535156 325.058594 259.359375L322.570313 259.359375M331.867188 259.316406C331.867188 258.03125 331.386719 257.328125 330.371094 257.328125 329.667969 257.328125 329.179688 257.730469 328.574219 258.265625L328.53125 258.265625 328.542969 257.363281 328.285156 257.363281 326.867188 257.6875 326.867188 258.011719C326.867188 258.011719 326.980469 257.988281 327.167969 257.988281 327.46875 257.988281 327.636719 258.074219 327.636719 258.480469L327.636719 261.613281C327.636719 262.238281 327.605469 262.425781 326.855469 262.425781L326.855469 262.738281 329.414063 262.738281 329.414063 262.425781C328.609375 262.425781 328.5625 262.238281 328.5625 261.613281L328.5625 258.746094C328.898438 258.445313 329.3125 258.042969 329.914063 258.042969 330.414063 258.042969 330.941406 258.253906 330.941406 259.59375L330.941406 261.613281C330.941406 262.238281 330.90625 262.425781 330.113281 262.425781L330.113281 262.738281 332.691406 262.738281 332.691406 262.425781C331.945313 262.425781 331.867188 262.238281 331.867188 261.613281L331.867188 259.316406M333.433594 260.910156L333.46875 262.828125 333.703125 262.828125 333.9375 262.574219 333.960938 262.574219C334.25 262.695313 334.585938 262.863281 335.230469 262.863281 336.234375 262.863281 337.105469 262.460938 337.105469 261.410156 337.105469 260.585938 336.558594 260.175781 335.542969 259.636719 334.605469 259.160156 334.238281 258.878906 334.238281 258.445313 334.238281 257.941406 334.628906 257.707031 335.140625 257.707031 335.820313 257.707031 336.234375 258.03125 336.480469 259.089844L336.78125 259.089844 336.746094 257.386719 336.523438 257.386719 336.335938 257.621094 336.324219 257.621094C336.046875 257.484375 335.710938 257.328125 335.152344 257.328125 334.195313 257.328125 333.445313 257.820313 333.445313 258.734375 333.445313 259.558594 333.902344 259.949219 334.917969 260.464844 335.957031 260.976563 336.167969 261.191406 336.167969 261.714844 336.167969 262.238281 335.765625 262.449219 335.210938 262.449219 334.382813 262.449219 333.960938 262.058594 333.726563 260.910156L333.433594 260.910156M346.414063 262.605469L346.414063 262.148438 346.179688 262.148438C345.765625 262.148438 345.601563 262.035156 345.601563 261.46875L345.601563 254.863281 344.976563 254.863281 343.191406 255.253906 343.191406 255.734375C343.191406 255.734375 343.402344 255.722656 343.515625 255.722656 343.9375 255.722656 344.003906 255.8125 344.003906 256.300781L344.003906 257.574219 343.972656 257.574219C343.601563 257.394531 343.234375 257.328125 342.890625 257.328125 341.484375 257.328125 340.355469 258.210938 340.355469 260.261719 340.355469 261.691406 340.980469 262.851563 342.265625 262.851563 343.003906 262.851563 343.558594 262.449219 343.984375 262.082031L344.027344 262.082031 344.027344 262.796875 344.417969 262.796875zM344.003906 261.523438C343.636719 261.78125 343.414063 261.925781 342.976563 261.925781 342.386719 261.925781 342.085938 261.332031 342.085938 259.929688 342.085938 258.589844 342.433594 257.988281 343.003906 257.988281 343.613281 257.988281 343.90625 258.421875 344.003906 258.824219L344.003906 261.523438M349.789063 257.328125C347.914063 257.328125 347.054688 258.5 347.054688 260.0625 347.054688 262.003906 348.003906 262.851563 349.757813 262.851563 351.507813 262.851563 352.457031 261.847656 352.457031 259.941406 352.457031 258.332031 351.574219 257.328125 349.789063 257.328125zM349.703125 257.863281C350.4375 257.863281 350.761719 258.632813 350.761719 260.027344 350.761719 261.566406 350.527344 262.304688 349.789063 262.304688 349.066406 262.304688 348.753906 261.546875 348.753906 259.949219 348.753906 258.679688 348.988281 257.863281 349.703125 257.863281M362.496094 257.464844L360.253906 257.464844 360.253906 257.910156C360.675781 257.910156 360.976563 257.953125 360.976563 258.175781 360.976563 258.308594 360.953125 258.386719 360.910156 258.511719L360.109375 260.675781 359.894531 261.3125 359.816406 261.3125 359.617188 260.6875 358.824219 258.589844C358.757813 258.410156 358.714844 258.289063 358.714844 258.132813 358.714844 257.976563 358.824219 257.910156 359.238281 257.910156L359.238281 257.464844 356.46875 257.464844 356.46875 257.910156C356.972656 257.910156 357.039063 257.988281 357.261719 258.601563L357.386719 258.945313 356.605469 260.675781 356.371094 261.3125 356.28125 261.3125 356.078125 260.6875 355.199219 258.589844C355.132813 258.410156 355.089844 258.308594 355.089844 258.132813 355.089844 257.976563 355.199219 257.910156 355.621094 257.910156L355.621094 257.464844 352.609375 257.464844 352.609375 257.910156C353.101563 257.910156 353.222656 257.996094 353.46875 258.601563L355.242188 262.816406 356.304688 262.816406 357.640625 259.828125 357.6875 259.828125 358.78125 262.816406 359.851563 262.816406 361.65625 258.578125C361.871094 258.066406 362.09375 257.910156 362.496094 257.910156L362.496094 257.464844M368.535156 259.503906C368.535156 258.03125 367.855469 257.328125 366.683594 257.328125 366.015625 257.328125 365.535156 257.71875 364.964844 258.277344L364.921875 258.277344 364.921875 257.363281 364.308594 257.363281 362.589844 257.6875 362.589844 258.144531C362.589844 258.144531 362.703125 258.121094 362.890625 258.121094 363.203125 258.121094 363.347656 258.210938 363.347656 258.621094L363.347656 261.488281C363.347656 262.105469 363.316406 262.292969 362.578125 262.292969L362.578125 262.738281 365.746094 262.738281 365.746094 262.292969C365.011719 262.292969 364.953125 262.105469 364.953125 261.488281L364.953125 258.878906C365.277344 258.613281 365.578125 258.402344 366.039063 258.402344 366.628906 258.402344 366.941406 258.699219 366.941406 259.75L366.941406 261.488281C366.941406 262.113281 366.863281 262.292969 366.203125 262.292969L366.203125 262.738281 369.304688 262.738281 369.304688 262.292969C368.660156 262.292969 368.535156 262.105469 368.535156 261.488281L368.535156 259.503906M378.996094 257.464844L376.753906 257.464844 376.753906 257.910156C377.175781 257.910156 377.476563 257.953125 377.476563 258.175781 377.476563 258.308594 377.453125 258.386719 377.410156 258.511719L376.609375 260.675781 376.394531 261.3125 376.316406 261.3125 376.117188 260.6875 375.324219 258.589844C375.257813 258.410156 375.214844 258.289063 375.214844 258.132813 375.214844 257.976563 375.324219 257.910156 375.738281 257.910156L375.738281 257.464844 372.96875 257.464844 372.96875 257.910156C373.472656 257.910156 373.539063 257.988281 373.761719 258.601563L373.886719 258.945313 373.105469 260.675781 372.871094 261.3125 372.78125 261.3125 372.578125 260.6875 371.699219 258.589844C371.632813 258.410156 371.589844 258.308594 371.589844 258.132813 371.589844 257.976563 371.699219 257.910156 372.121094 257.910156L372.121094 257.464844 369.109375 257.464844 369.109375 257.910156C369.601563 257.910156 369.722656 257.996094 369.96875 258.601563L371.742188 262.816406 372.804688 262.816406 374.140625 259.828125 374.1875 259.828125 375.28125 262.816406 376.351563 262.816406 378.15625 258.578125C378.371094 258.066406 378.59375 257.910156 378.996094 257.910156L378.996094 257.464844M381.96875 262.148438C382.070313 262.660156 382.292969 262.851563 383.03125 262.851563 383.867188 262.851563 384.246094 262.496094 384.613281 261.949219L384.367188 261.703125C384.199219 261.871094 384.011719 262.003906 383.832031 262.003906 383.597656 262.003906 383.484375 261.914063 383.484375 261.46875L383.484375 259.046875C383.484375 257.820313 382.71875 257.316406 381.320313 257.316406 380.027344 257.316406 379.214844 257.898438 379.214844 258.566406 379.214844 259.070313 379.570313 259.316406 379.894531 259.316406 380.285156 259.316406 380.628906 259.113281 380.628906 258.601563 380.628906 257.964844 380.753906 257.808594 381.199219 257.808594 381.734375 257.808594 381.890625 258.011719 381.890625 258.957031L381.890625 259.492188C380.832031 259.804688 378.96875 260.039063 378.96875 261.589844 378.96875 262.496094 379.558594 262.863281 380.371094 262.863281 381.144531 262.863281 381.390625 262.59375 381.925781 262.148438zM381.890625 261.65625C381.566406 261.96875 381.367188 262.070313 381.078125 262.070313 380.730469 262.070313 380.5625 261.824219 380.5625 261.277344 380.5625 260.441406 381.019531 260.195313 381.890625 259.929688L381.890625 261.65625M387.121094 257.363281L386.484375 257.363281 384.734375 257.707031 384.734375 258.1875C384.734375 258.1875 384.855469 258.167969 385.078125 258.167969 385.46875 258.167969 385.546875 258.386719 385.546875 258.789063L385.546875 261.523438C385.546875 262.148438 385.449219 262.292969 384.722656 262.292969L384.722656 262.738281 388.226563 262.738281 388.226563 262.292969C387.433594 262.292969 387.144531 262.171875 387.144531 261.445313L387.144531 259.148438C387.398438 258.855469 387.632813 258.644531 387.878906 258.644531 388.058594 258.644531 388.316406 259.113281 388.804688 259.113281 389.140625 259.113281 389.488281 258.855469 389.488281 258.210938 389.488281 257.640625 389.207031 257.296875 388.628906 257.296875 387.925781 257.296875 387.757813 257.742188 387.164063 258.523438L387.121094 258.523438 387.121094 257.363281M395.816406 262.605469L395.816406 262.148438 395.582031 262.148438C395.167969 262.148438 395 262.035156 395 261.46875L395 254.863281 394.375 254.863281 392.589844 255.253906 392.589844 255.734375C392.589844 255.734375 392.804688 255.722656 392.914063 255.722656 393.339844 255.722656 393.40625 255.8125 393.40625 256.300781L393.40625 257.574219 393.371094 257.574219C393.003906 257.394531 392.636719 257.328125 392.289063 257.328125 390.882813 257.328125 389.757813 258.210938 389.757813 260.261719 389.757813 261.691406 390.382813 262.851563 391.664063 262.851563 392.402344 262.851563 392.960938 262.449219 393.382813 262.082031L393.429688 262.082031 393.429688 262.796875 393.816406 262.796875zM393.40625 261.523438C393.039063 261.78125 392.8125 261.925781 392.378906 261.925781 391.789063 261.925781 391.484375 261.332031 391.484375 259.929688 391.484375 258.589844 391.832031 257.988281 392.402344 257.988281 393.015625 257.988281 393.304688 258.421875 393.40625 258.824219L393.40625 261.523438M398.992188 257.464844L398.992188 257.933594 399.839844 257.933594 399.839844 261.410156C399.839844 262.28125 399.714844 262.417969 398.902344 262.417969L398.902344 262.738281 401.902344 262.738281 401.902344 262.417969C400.976563 262.417969 400.765625 262.28125 400.765625 261.410156L400.765625 257.933594 402.125 257.933594 402.125 257.464844 400.765625 257.464844 400.765625 256.46875C400.765625 255.535156 400.886719 255.199219 401.300781 255.199219 401.859375 255.199219 401.914063 256.046875 402.46875 256.046875 402.726563 256.046875 402.929688 255.890625 402.929688 255.566406 402.929688 255.066406 402.402344 254.785156 401.679688 254.785156 400.898438 254.785156 400.496094 255.085938 400.195313 255.597656 399.90625 256.113281 399.839844 256.613281 399.839844 257.464844L398.992188 257.464844M404.976563 257.328125C403.472656 257.328125 402.480469 258.421875 402.480469 260.039063 402.480469 261.847656 403.417969 262.851563 404.976563 262.851563 406.429688 262.851563 407.453125 261.871094 407.453125 259.996094 407.453125 258.34375 406.507813 257.328125 404.976563 257.328125zM404.933594 257.753906C405.925781 257.753906 406.429688 258.679688 406.429688 260.050781 406.429688 261.871094 405.9375 262.40625 405.023438 262.40625 404.0625 262.417969 403.515625 261.667969 403.515625 259.894531 403.515625 258.464844 404.085938 257.753906 404.933594 257.753906M409.941406 257.363281L409.671875 257.363281 408.289063 257.699219 408.289063 258.011719C408.289063 258.011719 408.414063 257.988281 408.636719 257.988281 409.039063 257.988281 409.039063 258.1875 409.039063 258.589844L409.039063 261.65625C409.039063 262.28125 408.960938 262.417969 408.222656 262.417969L408.222656 262.738281 411.011719 262.738281 411.011719 262.417969C410.175781 262.417969 409.964844 262.304688 409.964844 261.601563L409.964844 259.058594C410.230469 258.613281 410.589844 258.144531 410.84375 258.144531 410.980469 258.144531 411.203125 258.523438 411.570313 258.523438 411.816406 258.523438 412.0625 258.34375 412.0625 257.921875 412.0625 257.542969 411.851563 257.296875 411.414063 257.296875 410.878906 257.296875 410.542969 257.6875 409.976563 258.511719L409.941406 258.511719 409.941406 257.363281M420.398438 257.472656L419.808594 257.472656 419.40625 257.988281 419.363281 257.988281C419.171875 257.707031 418.816406 257.394531 418.246094 257.394531 416.652344 257.394531 415.367188 259.070313 415.359375 261.210938 415.347656 262.339844 415.925781 262.875 416.664063 262.875 417.3125 262.875 418.003906 262.503906 418.582031 261.792969L418.660156 261.792969C418.628906 261.992188 418.582031 262.136719 418.582031 262.347656 418.582031 262.671875 418.816406 262.851563 419.195313 262.851563 419.898438 262.851563 420.355469 262.347656 420.8125 261.65625L420.589844 261.488281C420.445313 261.679688 420.121094 262.070313 419.765625 262.070313 419.585938 262.070313 419.542969 261.980469 419.542969 261.835938 419.542969 261.667969 419.597656 261.421875 419.597656 261.421875zM419.140625 258.867188C419.140625 259.257813 418.9375 260.285156 418.828125 260.730469 418.617188 261.535156 417.890625 262.136719 417.1875 262.136719 416.675781 262.136719 416.339844 261.847656 416.339844 260.863281 416.339844 259.347656 417.054688 257.820313 418.167969 257.820313 418.792969 257.820313 419.140625 258.332031 419.140625 258.867188M431.496094 263.019531L431.496094 262.292969 426.554688 259.839844 431.496094 257.386719 431.496094 256.636719 425.035156 259.785156 425.035156 259.894531 431.496094 263.019531M440.621094 259.203125C440.621094 256.90625 439.617188 255.578125 438.179688 255.578125 436.5625 255.578125 435.703125 257.050781 435.703125 259.167969 435.703125 261.144531 436.359375 262.863281 438.15625 262.863281 439.90625 262.863281 440.621094 261.113281 440.621094 259.203125zM439.539063 259.269531C439.539063 261.410156 439.039063 262.460938 438.15625 262.460938 437.261719 262.460938 436.773438 261.390625 436.773438 259.226563 436.773438 257.015625 437.261719 255.957031 438.144531 255.957031 439.058594 255.957031 439.539063 257.003906 439.539063 259.269531" />
</svg>